# xmcd
#
# Track frame offsets:
#  150
#  16187
#  32197
#  44615
#  60995
#  83870
#  99405
#  117202
#  129937
#  151460
#
# Disc length: 2260 seconds
#
# Revision: 0
# Processed by: cddbd v1.5.2PL0 Copyright (c) Steve Scherf et al.
# Submitted via: AltoMP3_Maker 3.0
#
DISCID=7408d20a
DTITLE=Wiley Hicks - Invitation to Dance
DYEAR=1900
DGENRE=
TTITLE0=Diamond
TTITLE1=I Do
TTITLE2=DOA
TTITLE3=Built On Solid Ground
TTITLE4=She Need Her Man
TTITLE5=No More Good Byes
TTITLE6=It's Little Things
TTITLE7=You and Me
TTITLE8=Cotton Eyed Joe
TTITLE9=Schottish
EXTD=
EXTT0=
EXTT1=
EXTT2=
EXTT3=
EXTT4=
EXTT5=
EXTT6=
EXTT7=
EXTT8=
EXTT9=
PLAYORDER=
